PathFileType	4	(X/Y/Z)	OpenSim_Sub02_EMGBaseline_Magnet.trc
DataRate	CameraRate	NumFrames	NumMarkers	Units	OrigDataRate	OrigDataStartFrame	OrigNumFrames
100	100	36	8	m	100	2523	6727
Frame#	Time	torso_imu_offset_imu	pelvis_imu_offset_imu	tibia_r_imu_offset_imu	femur_r_imu_offset_imu	tibia_l_imu_offset_imu	femur_l_imu_offset_imu	toes_r_imu_offset_imu	toes_l_imu_offset_imu
				X1	Y1	Z1	X2	Y2	Z2	X3	Y3	Z3	X4	Y4	Z4	X5	Y5	Z5	X6	Y6	Z6	X7	Y7	Z7	X8		Y8	Z8	

2523	25.22000000	-0.93368103	-0.18123947	-0.07599445	-0.62234333	0.22371450	-0.65479503	-0.64605548	-0.43515532	-0.23500298	-0.81980067	-0.21360731	0.10568086	-0.35678361	0.75667203	-0.05205586	-0.58434638	0.51895491	0.30573472	-0.60035752	-0.29645578	-0.41287136	-0.78195179	-0.09619846	-0.44695575
2524	25.23000000	-0.93764763	-0.17594225	-0.07922430	-0.62657826	0.22475902	-0.65204221	-0.64172132	-0.44801319	-0.21520238	-0.81711664	-0.20343094	0.11298704	-0.33696729	0.76935078	-0.06338336	-0.59091249	0.51457094	0.30781270	-0.60612658	-0.29999150	-0.41256207	-0.80210010	-0.08923913	-0.39056143
2525	25.24000000	-0.93453332	-0.17483841	-0.08138160	-0.62637863	0.22338094	-0.64679338	-0.63663772	-0.46569368	-0.20038888	-0.81355714	-0.19434993	0.12379860	-0.30810147	0.77670261	-0.07932982	-0.60043452	0.50814820	0.30249099	-0.60150801	-0.30826474	-0.41835524	-0.82489295	-0.07803379	-0.32771254
2526	25.25000000	-0.93188334	-0.17798761	-0.08300994	-0.62321684	0.22205109	-0.64292439	-0.62611840	-0.48193621	-0.18838023	-0.81393967	-0.19260085	0.13250982	-0.27800609	0.78918403	-0.10312398	-0.61458693	0.49714578	0.28816185	-0.60246586	-0.30505306	-0.41096284	-0.84974224	-0.07482123	-0.27350267
2527	25.26000000	-0.94037971	-0.17763239	-0.08712777	-0.62397739	0.22242945	-0.64298906	-0.62136954	-0.49990399	-0.16602333	-0.81615180	-0.19595329	0.13388048	-0.24930628	0.79718428	-0.11608438	-0.62496302	0.48096058	0.28009110	-0.61003006	-0.30578167	-0.40559516	-0.86808498	-0.06021067	-0.19143691
2528	25.27000000	-0.93831008	-0.17617869	-0.08770548	-0.62354761	0.22172699	-0.64629426	-0.61472031	-0.51817323	-0.15332244	-0.81122340	-0.20211350	0.14291037	-0.22107527	0.79930221	-0.13425798	-0.64004500	0.46548878	0.27342000	-0.60771541	-0.30650578	-0.41111453	-0.87988271	-0.04035235	-0.10683670
2529	25.28000000	-0.93943497	-0.17697799	-0.08139856	-0.62475031	0.21799421	-0.64604067	-0.60483648	-0.52563849	-0.14866278	-0.80315125	-0.21171735	0.14649916	-0.18859727	0.80446737	-0.16008319	-0.65842134	0.45154991	0.26185138	-0.60482967	-0.30214833	-0.41082421	-0.87862041	-0.01949806	-0.03880703
2530	25.29000000	-0.93648627	-0.17444111	-0.07421954	-0.62598414	0.21537741	-0.65122595	-0.60057541	-0.52813795	-0.13501996	-0.80237274	-0.22991647	0.15399862	-0.16158977	0.80149442	-0.18884688	-0.67100063	0.43653295	0.25620196	-0.60730254	-0.30182666	-0.40646611	-0.87113788	0.00738420	0.03150496
2531	25.30000000	-0.93577431	-0.17091246	-0.07054514	-0.62521687	0.21697501	-0.64981204	-0.60183800	-0.53072308	-0.12958677	-0.79665205	-0.24529414	0.15758161	-0.14154466	0.79662269	-0.22323005	-0.68616975	0.41797905	0.24999240	-0.60557829	-0.30133716	-0.40673184	-0.86982793	0.03418286	0.09143506
2532	25.31000000	-0.94282447	-0.16904157	-0.06620689	-0.62110161	0.21872441	-0.65171677	-0.59970596	-0.53008897	-0.13899247	-0.79303157	-0.25811396	0.16047032	-0.12666322	0.79427158	-0.24211406	-0.70199447	0.40256746	0.24132721	-0.60487593	-0.30389145	-0.40975242	-0.86002815	0.06221472	0.13726955
2533	25.32000000	-0.93898680	-0.16760089	-0.06159930	-0.61962492	0.20948796	-0.65997801	-0.60117392	-0.53031490	-0.14427648	-0.78561631	-0.26561388	0.16962311	-0.11156858	0.78868261	-0.26131622	-0.71199922	0.38279210	0.23666490	-0.60901323	-0.30609506	-0.40881961	-0.84585121	0.07908027	0.17812210
2534	25.33000000	-0.93575035	-0.16961676	-0.05897702	-0.62171396	0.20952899	-0.66406056	-0.60283538	-0.52336229	-0.15517825	-0.78111558	-0.26600928	0.17159573	-0.09951745	0.78143822	-0.27228381	-0.72543026	0.35895740	0.22372508	-0.60375488	-0.30690170	-0.41029328	-0.82950364	0.09726544	0.21072779
2535	25.34000000	-0.94072219	-0.16851684	-0.05377898	-0.62054061	0.21072857	-0.65908936	-0.60115970	-0.52155855	-0.17489040	-0.78114286	-0.27051014	0.17698258	-0.09531198	0.77825302	-0.29099755	-0.73564450	0.34513531	0.21618079	-0.60371274	-0.30736103	-0.41070215	-0.81348861	0.11312723	0.22545675
2536	25.35000000	-0.94219926	-0.16434013	-0.05140629	-0.62387736	0.19761934	-0.65560462	-0.59320159	-0.52992862	-0.19051540	-0.77787534	-0.27698104	0.18108008	-0.08878587	0.77821808	-0.30289185	-0.74428337	0.33130338	0.21346000	-0.60941428	-0.30447294	-0.40734888	-0.81265856	0.13067426	0.21337384
2537	25.36000000	-0.94450401	-0.16417389	-0.04644361	-0.62143843	0.18876782	-0.65965305	-0.58218658	-0.53350223	-0.19985675	-0.77852952	-0.28318658	0.18939460	-0.07823202	0.77360915	-0.31106330	-0.74904214	0.31399544	0.21254110	-0.61066789	-0.30482447	-0.40988620	-0.81414129	0.14282947	0.19698716
2538	25.37000000	-0.93963606	-0.16230205	-0.04287990	-0.62089815	0.18781325	-0.66485893	-0.57881535	-0.54242370	-0.20671310	-0.77768531	-0.28231940	0.20147878	-0.06728016	0.76696371	-0.32849621	-0.75194743	0.29970760	0.22027998	-0.61267940	-0.30606231	-0.40812480	-0.81767741	0.14245809	0.18953341
2539	25.38000000	-0.94032226	-0.15655717	-0.04265718	-0.62528498	0.18644330	-0.66589861	-0.57527015	-0.54576558	-0.20852210	-0.77326485	-0.28089484	0.20442892	-0.06872271	0.76699640	-0.34141386	-0.75983040	0.28206640	0.22311147	-0.60872002	-0.30637428	-0.39990559	-0.81465496	0.14750627	0.17985844
2540	25.39000000	-0.94262816	-0.15736040	-0.04103864	-0.62591805	0.17935941	-0.66336925	-0.57301569	-0.54917299	-0.20684939	-0.76667468	-0.28877251	0.20913856	-0.07201264	0.75815944	-0.34433172	-0.76036634	0.26987281	0.21839040	-0.61122266	-0.31002232	-0.39856446	-0.81085050	0.14706382	0.16494559
2541	25.40000000	-0.93824410	-0.15934309	-0.03403177	-0.62415646	0.17180380	-0.66585389	-0.57233285	-0.55789784	-0.19653297	-0.76660308	-0.28780011	0.21609609	-0.08362524	0.74870495	-0.34537838	-0.76196685	0.25706485	0.22412706	-0.61682808	-0.30628933	-0.39850832	-0.80916266	0.14421234	0.16252570
2542	25.41000000	-0.94218442	-0.16257374	-0.03141927	-0.62336638	0.16568215	-0.67062005	-0.56856154	-0.56222290	-0.18597548	-0.76649152	-0.29126066	0.21691309	-0.09904091	0.75141690	-0.34947389	-0.77297252	0.24087040	0.23260609	-0.60856725	-0.30759474	-0.40043989	-0.80543537	0.12835094	0.15034573
2543	25.42000000	-0.94167046	-0.16002933	-0.02824841	-0.62804453	0.16034071	-0.67485792	-0.56504199	-0.56848518	-0.17849287	-0.75938071	-0.29670000	0.22246569	-0.11301575	0.75469210	-0.34989618	-0.77440597	0.22678054	0.23299232	-0.60765454	-0.31175159	-0.39762161	-0.80707898	0.11087851	0.13468239
2544	25.43000000	-0.93999962	-0.16267094	-0.01604820	-0.62681637	0.15608999	-0.67953778	-0.56335974	-0.57740964	-0.17036429	-0.75729639	-0.30172248	0.21967092	-0.13780020	0.75065760	-0.34218925	-0.77561287	0.20790220	0.23959827	-0.61324983	-0.31112354	-0.39460216	-0.81354022	0.09912590	0.12373008
2545	25.44000000	-0.94048418	-0.16661065	-0.01046253	-0.62613336	0.14614696	-0.68331332	-0.55893116	-0.58424565	-0.16879673	-0.75241922	-0.30698559	0.21373225	-0.16302408	0.75128189	-0.32358458	-0.78042980	0.19481367	0.24706012	-0.61482275	-0.31729061	-0.39777774	-0.81409788	0.08288752	0.10785529
2546	25.45000000	-0.93991165	-0.16618596	-0.01162042	-0.62179143	0.14122154	-0.68205642	-0.55199126	-0.58481413	-0.16827468	-0.75460285	-0.31237414	0.21659982	-0.18437674	0.75153784	-0.31226381	-0.78253692	0.17907224	0.24310900	-0.61444031	-0.31567901	-0.39190925	-0.80857824	0.06086879	0.08825150
2547	25.46000000	-0.94226647	-0.16418927	-0.01092666	-0.62012766	0.13909763	-0.68303461	-0.54682407	-0.58971344	-0.17955919	-0.75459076	-0.31674570	0.21768898	-0.20887469	0.74860838	-0.29170904	-0.78571239	0.15670686	0.24125711	-0.60756190	-0.31720948	-0.38883339	-0.81432015	0.03487246	0.06141496
2548	25.47000000	-0.94608296	-0.15972382	-0.00637970	-0.61666129	0.13243720	-0.68748865	-0.54220658	-0.59392925	-0.18517482	-0.75211986	-0.31810293	0.21726903	-0.23610585	0.74670277	-0.27736951	-0.78680289	0.14740656	0.24855691	-0.60646597	-0.31831406	-0.38826933	-0.81597591	0.01811488	0.03522679
2549	25.48000000	-0.94094193	-0.16185343	-0.00753243	-0.61171592	0.13105159	-0.69551867	-0.53950723	-0.59655083	-0.19113264	-0.74932168	-0.32817084	0.21172592	-0.26317539	0.74334055	-0.26562216	-0.79070916	0.13275653	0.24626636	-0.60475647	-0.31798014	-0.38719041	-0.81282782	0.00585626	0.01252101
2550	25.49000000	-0.93986671	-0.16332346	-0.00542420	-0.60942078	0.13095644	-0.69852617	-0.53441373	-0.59405730	-0.20926299	-0.74870256	-0.33451683	0.21005667	-0.28782282	0.74508603	-0.24964910	-0.79004509	0.11600207	0.24336841	-0.60612977	-0.31845538	-0.38618052	-0.81561855	-0.00684041	-0.02161970
2551	25.50000000	-0.94299225	-0.16135546	0.00142622	-0.61127697	0.12579277	-0.69924876	-0.52687771	-0.59731810	-0.21491828	-0.74585785	-0.33614333	0.20955203	-0.31731356	0.73206496	-0.23593408	-0.79358449	0.10843508	0.24522551	-0.60103382	-0.31661373	-0.38473837	-0.81032024	-0.01401699	-0.06367594
2552	25.51000000	-0.94362106	-0.16199031	0.00258882	-0.61069409	0.12200623	-0.70052179	-0.52534255	-0.60458917	-0.21429564	-0.73875081	-0.34315684	0.20683146	-0.35442269	0.71743126	-0.22043460	-0.79733506	0.09494174	0.24719419	-0.59617906	-0.31743282	-0.38519776	-0.80815176	-0.01732336	-0.09434177
2553	25.52000000	-0.94390039	-0.16090005	0.00534100	-0.60335793	0.12406829	-0.70129820	-0.52443371	-0.60096135	-0.21833303	-0.73938455	-0.34936481	0.20634537	-0.38599955	0.70338688	-0.21731916	-0.80204925	0.08510120	0.24463523	-0.59658731	-0.31456423	-0.38452760	-0.80723085	-0.01617618	-0.13427359
2554	25.53000000	-0.94215426	-0.15897811	0.01346166	-0.60316233	0.12488547	-0.70381855	-0.52310437	-0.60490607	-0.22264275	-0.73507713	-0.35484192	0.20585280	-0.41474985	0.68749661	-0.21003065	-0.80321581	0.07893406	0.24127628	-0.59260733	-0.31444752	-0.38726770	-0.79871058	-0.01709303	-0.17102310
2555	25.54000000	-0.94373284	-0.16198901	0.01548747	-0.60413775	0.11946271	-0.70654200	-0.51535217	-0.61152426	-0.21973860	-0.73266007	-0.36459740	0.21035579	-0.44825504	0.67183993	-0.20253501	-0.79249299	0.07432079	0.24521528	-0.58962436	-0.31778293	-0.38866746	-0.79510719	-0.01875420	-0.20632063
2556	25.55000000	-0.94456590	-0.16328261	0.02080907	-0.60580517	0.11726470	-0.70576071	-0.50954218	-0.61745277	-0.21328158	-0.73274933	-0.36859197	0.21367941	-0.48335961	0.64317979	-0.20629981	-0.79710796	0.07327554	0.24435236	-0.58652271	-0.31502487	-0.38661696	-0.79042315	-0.01573991	-0.25241125
2557	25.56000000	-0.94624608	-0.16113905	0.02398563	-0.60396044	0.12598711	-0.70610177	-0.50882711	-0.61779066	-0.21616644	-0.72614347	-0.37468833	0.21068319	-0.51143175	0.61676792	-0.20615248	-0.79959318	0.06784744	0.24471952	-0.58353942	-0.31765645	-0.38813772	-0.78602945	-0.02000328	-0.28601885
2558	25.57000000	-0.94543554	-0.15621094	0.02506278	-0.59813431	0.12872822	-0.70686359	-0.50367400	-0.61744045	-0.21593842	-0.72058780	-0.38366135	0.21650897	-0.53451087	0.59244377	-0.20718651	-0.79669396	0.06628508	0.25223317	-0.57928898	-0.32111796	-0.39612843	-0.77218491	-0.03086435	-0.32348633
